<?xml version="1.0" encoding="UTF-8"?>
<!DOCTYPE svg PUBLIC "-//W3C//DTD SVG 1.1//EN" "http://www.w3.org/Graphics/SVG/1.1/DTD/svg11.dtd">
<svg version="1.2" xmlns="http://www.w3.org/2000/svg" xmlns:xlink="http://www.w3.org/1999/xlink" x="379mm" y="0mm" width="1082mm" height="806mm" viewBox="379 0 1082 806">
<style type="text/css"><![CDATA[
text { font:12px Dialog; }
]]></style>
<line x1="680" y1="180" x2="1020" y2="180" style="fill:none;stroke:rgb(64,64,64);stroke-linecap:square" />
<polygon points="680,180 693,173 706,180 693,187" style="fill:rgb(0,0,0);stroke:none" />
<polygon points="680,180 693,173 706,180 693,187" style="fill:none;stroke:rgb(64,64,64);stroke-linecap:square" />
<line x1="1030" y1="235" x2="1030" y2="370" style="fill:none;stroke:rgb(64,64,64);stroke-linecap:square" />
<line x1="1030" y1="370" x2="910" y2="370" style="fill:none;stroke:rgb(64,64,64);stroke-linecap:square" />
<polygon points="1030,235 1037,248 1030,261 1023,248" style="fill:rgb(0,0,0);stroke:none" />
<polygon points="1030,235 1037,248 1030,261 1023,248" style="fill:none;stroke:rgb(64,64,64);stroke-linecap:square" />
<line x1="1170" y1="235" x2="1170" y2="330" style="fill:none;stroke:rgb(64,64,64);stroke-linecap:square" />
<polygon points="1170,235 1177,248 1170,261 1163,248" style="fill:rgb(0,0,0);stroke:none" />
<polygon points="1170,235 1177,248 1170,261 1163,248" style="fill:none;stroke:rgb(64,64,64);stroke-linecap:square" />
<line x1="1260" y1="730" x2="1260" y2="505" style="fill:none;stroke:rgb(64,64,64);stroke-linecap:square" />
<polygon points="1260,505 1268,525 1252,525" style="fill:rgb(255,255,255);stroke:none" />
<polygon points="1260,505 1268,525 1252,525" style="fill:none;stroke:rgb(64,64,64);stroke-linecap:square" />
<line x1="670" y1="130" x2="670" y2="95" style="fill:none;stroke:rgb(64,64,64);stroke-linecap:square" />
<polygon points="670,95 678,115 662,115" style="fill:rgb(255,255,255);stroke:none" />
<polygon points="670,95 678,115 662,115" style="fill:none;stroke:rgb(64,64,64);stroke-linecap:square" />
<line x1="810" y1="330" x2="810" y2="310" style="fill:none;stroke:rgb(64,64,64);stroke-linecap:square" />
<line x1="810" y1="310" x2="720" y2="310" style="fill:none;stroke:rgb(64,64,64);stroke-linecap:square" />
<path d="M720,174 C716.6862915,174 714,176.6862915 714,180 C714,183.3137085 716.6862915,186 720,186" style="fill:none;stroke:rgb(64,64,64);stroke-linecap:square" />
<line x1="720" y1="310" x2="720" y2="186" style="fill:none;stroke:rgb(64,64,64);stroke-linecap:square" />
<line x1="720" y1="174" x2="720" y2="95" style="fill:none;stroke:rgb(64,64,64);stroke-linecap:square" />
<polygon points="720,95 728,115 712,115" style="fill:rgb(255,255,255);stroke:none" />
<polygon points="720,95 728,115 712,115" style="fill:none;stroke:rgb(64,64,64);stroke-linecap:square" />
<line x1="1210" y1="330" x2="1210" y2="310" style="fill:none;stroke:rgb(64,64,64);stroke-linecap:square" />
<path d="M1164,310 C1164,313.3137085 1166.6862915,316 1170,316 C1173.3137085,316 1176,313.3137085 1176,310" style="fill:none;stroke:rgb(64,64,64);stroke-linecap:square" />
<line x1="1210" y1="310" x2="1176" y2="310" style="fill:none;stroke:rgb(64,64,64);stroke-linecap:square" />
<path d="M1024,310 C1024,313.3137085 1026.6862915,316 1030,316 C1033.3137085,316 1036,313.3137085 1036,310" style="fill:none;stroke:rgb(64,64,64);stroke-linecap:square" />
<line x1="1164" y1="310" x2="1036" y2="310" style="fill:none;stroke:rgb(64,64,64);stroke-linecap:square" />
<line x1="1024" y1="310" x2="720" y2="310" style="fill:none;stroke:rgb(64,64,64);stroke-linecap:square" />
<path d="M720,174 C716.6862915,174 714,176.6862915 714,180 C714,183.3137085 716.6862915,186 720,186" style="fill:none;stroke:rgb(64,64,64);stroke-linecap:square" />
<line x1="720" y1="310" x2="720" y2="186" style="fill:none;stroke:rgb(64,64,64);stroke-linecap:square" />
<line x1="720" y1="174" x2="720" y2="95" style="fill:none;stroke:rgb(64,64,64);stroke-linecap:square" />
<polygon points="720,95 728,115 712,115" style="fill:rgb(255,255,255);stroke:none" />
<polygon points="720,95 728,115 712,115" style="fill:none;stroke:rgb(64,64,64);stroke-linecap:square" />
<line x1="1130" y1="150" x2="1130" y2="130" style="fill:none;stroke:rgb(64,64,64);stroke-linecap:square" />
<line x1="1130" y1="130" x2="720" y2="130" style="fill:none;stroke:rgb(64,64,64);stroke-linecap:square" />
<line x1="720" y1="130" x2="720" y2="95" style="fill:none;stroke:rgb(64,64,64);stroke-linecap:square" />
<polygon points="720,95 728,115 712,115" style="fill:rgb(255,255,255);stroke:none" />
<polygon points="720,95 728,115 712,115" style="fill:none;stroke:rgb(64,64,64);stroke-linecap:square" />
<line x1="930" y1="450" x2="930" y2="440" style="fill:none;stroke:rgb(64,64,64);stroke-linecap:square" />
<line x1="930" y1="440" x2="820" y2="440" style="fill:none;stroke:rgb(64,64,64);stroke-linecap:square" />
<line x1="820" y1="440" x2="820" y2="400" style="fill:none;stroke:rgb(64,64,64);stroke-linecap:square" />
<polygon points="820,400 828,420 812,420" style="fill:rgb(255,255,255);stroke:none" />
<polygon points="820,400 828,420 812,420" style="fill:none;stroke:rgb(64,64,64);stroke-linecap:square" />
<line x1="710" y1="450" x2="710" y2="440" style="fill:none;stroke:rgb(64,64,64);stroke-linecap:square" />
<line x1="710" y1="440" x2="820" y2="440" style="fill:none;stroke:rgb(64,64,64);stroke-linecap:square" />
<line x1="820" y1="440" x2="820" y2="400" style="fill:none;stroke:rgb(64,64,64);stroke-linecap:square" />
<polygon points="820,400 828,420 812,420" style="fill:rgb(255,255,255);stroke:none" />
<polygon points="820,400 828,420 812,420" style="fill:none;stroke:rgb(64,64,64);stroke-linecap:square" />
<line x1="850" y1="570" x2="820" y2="570" style="fill:none;stroke:rgb(64,64,64);stroke-linecap:square" />
<line x1="820" y1="570" x2="820" y2="400" style="fill:none;stroke:rgb(64,64,64);stroke-linecap:square" />
<polygon points="820,400 828,420 812,420" style="fill:rgb(255,255,255);stroke:none" />
<polygon points="820,400 828,420 812,420" style="fill:none;stroke:rgb(64,64,64);stroke-linecap:square" />
<line x1="780" y1="570" x2="820" y2="570" style="fill:none;stroke:rgb(64,64,64);stroke-linecap:square" />
<line x1="820" y1="570" x2="820" y2="400" style="fill:none;stroke:rgb(64,64,64);stroke-linecap:square" />
<polygon points="820,400 828,420 812,420" style="fill:rgb(255,255,255);stroke:none" />
<polygon points="820,400 828,420 812,420" style="fill:none;stroke:rgb(64,64,64);stroke-linecap:square" />
<line x1="780" y1="660" x2="820" y2="660" style="fill:none;stroke:rgb(64,64,64);stroke-linecap:square" />
<line x1="820" y1="660" x2="820" y2="400" style="fill:none;stroke:rgb(64,64,64);stroke-linecap:square" />
<polygon points="820,400 828,420 812,420" style="fill:rgb(255,255,255);stroke:none" />
<polygon points="820,400 828,420 812,420" style="fill:none;stroke:rgb(64,64,64);stroke-linecap:square" />
<line x1="850" y1="660" x2="820" y2="660" style="fill:none;stroke:rgb(64,64,64);stroke-linecap:square" />
<line x1="820" y1="660" x2="820" y2="400" style="fill:none;stroke:rgb(64,64,64);stroke-linecap:square" />
<polygon points="820,400 828,420 812,420" style="fill:rgb(255,255,255);stroke:none" />
<polygon points="820,400 828,420 812,420" style="fill:none;stroke:rgb(64,64,64);stroke-linecap:square" />
<line x1="1340" y1="450" x2="1340" y2="430" style="fill:none;stroke:rgb(64,64,64);stroke-linecap:square" />
<line x1="1340" y1="430" x2="1210" y2="430" style="fill:none;stroke:rgb(64,64,64);stroke-linecap:square" />
<line x1="1210" y1="430" x2="1210" y2="400" style="fill:none;stroke:rgb(64,64,64);stroke-linecap:square" />
<polygon points="1210,400 1218,420 1202,420" style="fill:rgb(255,255,255);stroke:none" />
<polygon points="1210,400 1218,420 1202,420" style="fill:none;stroke:rgb(64,64,64);stroke-linecap:square" />
<line x1="1120" y1="450" x2="1120" y2="430" style="fill:none;stroke:rgb(64,64,64);stroke-linecap:square" />
<line x1="1120" y1="430" x2="1210" y2="430" style="fill:none;stroke:rgb(64,64,64);stroke-linecap:square" />
<line x1="1210" y1="430" x2="1210" y2="400" style="fill:none;stroke:rgb(64,64,64);stroke-linecap:square" />
<polygon points="1210,400 1218,420 1202,420" style="fill:rgb(255,255,255);stroke:none" />
<polygon points="1210,400 1218,420 1202,420" style="fill:none;stroke:rgb(64,64,64);stroke-linecap:square" />
<line x1="1290" y1="670" x2="1260" y2="670" style="fill:none;stroke:rgb(64,64,64);stroke-linecap:square" />
<line x1="1260" y1="670" x2="1260" y2="505" style="fill:none;stroke:rgb(64,64,64);stroke-linecap:square" />
<polygon points="1260,505 1268,525 1252,525" style="fill:rgb(255,255,255);stroke:none" />
<polygon points="1260,505 1268,525 1252,525" style="fill:none;stroke:rgb(64,64,64);stroke-linecap:square" />
<line x1="1340" y1="550" x2="1340" y2="505" style="fill:none;stroke:rgb(64,64,64);stroke-linecap:square" />
<polygon points="1340,505 1348,525 1332,525" style="fill:rgb(255,255,255);stroke:none" />
<polygon points="1340,505 1348,525 1332,525" style="fill:none;stroke:rgb(64,64,64);stroke-linecap:square" />
<line x1="1110" y1="550" x2="1110" y2="505" style="fill:none;stroke:rgb(64,64,64);stroke-linecap:square" />
<polygon points="1110,505 1118,525 1102,525" style="fill:rgb(255,255,255);stroke:none" />
<polygon points="1110,505 1118,525 1102,525" style="fill:none;stroke:rgb(64,64,64);stroke-linecap:square" />
<line x1="1180" y1="660" x2="1200" y2="660" style="fill:none;stroke:rgb(64,64,64);stroke-linecap:square" />
<line x1="1200" y1="660" x2="1200" y2="505" style="fill:none;stroke:rgb(64,64,64);stroke-linecap:square" />
<polygon points="1200,505 1208,525 1192,525" style="fill:rgb(255,255,255);stroke:none" />
<polygon points="1200,505 1208,525 1192,525" style="fill:none;stroke:rgb(64,64,64);stroke-linecap:square" />
<rect x="400" y="130" width="280" height="139" style="fill:rgb(255,247,225);stroke:none" />
<rect x="400" y="130" width="280" height="139" style="fill:none;stroke:rgb(65,65,65);stroke-width:1.2;stroke-linecap:square" />
<text x="518" y="152" style="font:12px Ubuntu">Schema</text>
<line x1="400" y1="165" x2="680" y2="165" style="fill:none;stroke:rgb(65,65,65);stroke-width:1.2;stroke-linecap:square" />
<text x="408" y="180" style="font:12px Ubuntu">+ type_ : str</text>
<text x="408" y="194" style="font:12px Ubuntu">+ name : str</text>
<text x="408" y="208" style="font:12px Ubuntu">+ description : str</text>
<text x="408" y="222" style="font:12px Ubuntu">+ uuid : UonUrl</text>
<text x="408" y="236" style="font:12px Ubuntu">+ required_attributes : list</text>
<line x1="400" y1="245" x2="680" y2="245" style="fill:none;stroke:rgb(65,65,65);stroke-width:1.2;stroke-linecap:square" />
<text x="408" y="260" style="font:12px Ubuntu">+ validateSchema (input_ : UonUserType) : void</text>
<rect x="1020" y="150" width="210" height="83" style="fill:rgb(255,247,225);stroke:none" />
<rect x="1020" y="150" width="210" height="83" style="fill:none;stroke:rgb(65,65,65);stroke-width:1.2;stroke-linecap:square" />
<text x="1098" y="172" style="font:12px Ubuntu">Validator</text>
<line x1="1020" y1="185" x2="1230" y2="185" style="fill:none;stroke:rgb(65,65,65);stroke-width:1.2;stroke-linecap:square" />
<text x="1028" y="200" style="font:12px Ubuntu">+ presentation_properties : dict</text>
<line x1="1020" y1="209" x2="1230" y2="209" style="fill:none;stroke:rgb(65,65,65);stroke-width:1.2;stroke-linecap:square" />
<text x="1028" y="224" style="font:12px Ubuntu">+ validate (input_ : UonValue) : void</text>
<rect x="1070" y="330" width="270" height="69" style="fill:rgb(255,247,225);stroke:none" />
<rect x="1070" y="330" width="270" height="69" style="fill:none;stroke:rgb(65,65,65);stroke-width:1.2;stroke-linecap:square" />
<text x="1151" y="352" style="font:12px Ubuntu">ValidationProperty</text>
<line x1="1070" y1="365" x2="1340" y2="365" style="fill:none;stroke:rgb(65,65,65);stroke-width:1.2;stroke-linecap:square" />
<line x1="1070" y1="375" x2="1340" y2="375" style="fill:none;stroke:rgb(65,65,65);stroke-width:1.2;stroke-linecap:square" />
<text x="1078" y="390" style="font:12px Ubuntu">+ validate_property (input_ : UonValue) : void</text>
<rect x="650" y="40" width="140" height="55" style="fill:rgb(255,247,225);stroke:none" />
<rect x="650" y="40" width="140" height="55" style="fill:none;stroke:rgb(65,65,65);stroke-width:1.2;stroke-linecap:square" />
<text x="709" y="62" style="font:12px Ubuntu">Uon</text>
<line x1="650" y1="75" x2="790" y2="75" style="fill:none;stroke:rgb(65,65,65);stroke-width:1.2;stroke-linecap:square" />
<line x1="650" y1="85" x2="790" y2="85" style="fill:none;stroke:rgb(65,65,65);stroke-width:1.2;stroke-linecap:square" />
<rect x="740" y="330" width="170" height="69" style="fill:rgb(255,247,225);stroke:none" />
<rect x="740" y="330" width="170" height="69" style="fill:none;stroke:rgb(65,65,65);stroke-width:1.2;stroke-linecap:square" />
<text x="782" y="352" style="font:12px Ubuntu">ValidationType</text>
<line x1="740" y1="365" x2="910" y2="365" style="fill:none;stroke:rgb(65,65,65);stroke-width:1.2;stroke-linecap:square" />
<line x1="740" y1="375" x2="910" y2="375" style="fill:none;stroke:rgb(65,65,65);stroke-width:1.2;stroke-linecap:square" />
<text x="748" y="390" style="font:12px Ubuntu">+ validate_type (input_ : U...</text>
<rect x="630" y="450" width="150" height="55" style="fill:rgb(255,247,225);stroke:none" />
<rect x="630" y="450" width="150" height="55" style="fill:none;stroke:rgb(65,65,65);stroke-width:1.2;stroke-linecap:square" />
<text x="652" y="472" style="font:12px Ubuntu">UrlTypeValidation</text>
<line x1="630" y1="485" x2="780" y2="485" style="fill:none;stroke:rgb(65,65,65);stroke-width:1.2;stroke-linecap:square" />
<line x1="630" y1="495" x2="780" y2="495" style="fill:none;stroke:rgb(65,65,65);stroke-width:1.2;stroke-linecap:square" />
<rect x="850" y="450" width="150" height="55" style="fill:rgb(255,247,225);stroke:none" />
<rect x="850" y="450" width="150" height="55" style="fill:none;stroke:rgb(65,65,65);stroke-width:1.2;stroke-linecap:square" />
<text x="863" y="472" style="font:12px Ubuntu">StringTypeValidation</text>
<line x1="850" y1="485" x2="1000" y2="485" style="fill:none;stroke:rgb(65,65,65);stroke-width:1.2;stroke-linecap:square" />
<line x1="850" y1="495" x2="1000" y2="495" style="fill:none;stroke:rgb(65,65,65);stroke-width:1.2;stroke-linecap:square" />
<rect x="630" y="550" width="150" height="55" style="fill:rgb(255,247,225);stroke:none" />
<rect x="630" y="550" width="150" height="55" style="fill:none;stroke:rgb(65,65,65);stroke-width:1.2;stroke-linecap:square" />
<text x="646" y="572" style="font:12px Ubuntu">FloatTypeValidation</text>
<line x1="630" y1="585" x2="780" y2="585" style="fill:none;stroke:rgb(65,65,65);stroke-width:1.2;stroke-linecap:square" />
<line x1="630" y1="595" x2="780" y2="595" style="fill:none;stroke:rgb(65,65,65);stroke-width:1.2;stroke-linecap:square" />
<rect x="850" y="550" width="150" height="55" style="fill:rgb(255,247,225);stroke:none" />
<rect x="850" y="550" width="150" height="55" style="fill:none;stroke:rgb(65,65,65);stroke-width:1.2;stroke-linecap:square" />
<text x="860" y="572" style="font:12px Ubuntu">IntegerTypeValidation</text>
<line x1="850" y1="585" x2="1000" y2="585" style="fill:none;stroke:rgb(65,65,65);stroke-width:1.2;stroke-linecap:square" />
<line x1="850" y1="595" x2="1000" y2="595" style="fill:none;stroke:rgb(65,65,65);stroke-width:1.2;stroke-linecap:square" />
<rect x="630" y="640" width="150" height="55" style="fill:rgb(255,247,225);stroke:none" />
<rect x="630" y="640" width="150" height="55" style="fill:none;stroke:rgb(65,65,65);stroke-width:1.2;stroke-linecap:square" />
<text x="649" y="662" style="font:12px Ubuntu">UintTypeValidation</text>
<line x1="630" y1="675" x2="780" y2="675" style="fill:none;stroke:rgb(65,65,65);stroke-width:1.2;stroke-linecap:square" />
<line x1="630" y1="685" x2="780" y2="685" style="fill:none;stroke:rgb(65,65,65);stroke-width:1.2;stroke-linecap:square" />
<rect x="850" y="640" width="160" height="55" style="fill:rgb(255,247,225);stroke:none" />
<rect x="850" y="640" width="160" height="55" style="fill:none;stroke:rgb(65,65,65);stroke-width:1.2;stroke-linecap:square" />
<text x="862" y="662" style="font:12px Ubuntu">BooleanTypeValidation</text>
<line x1="850" y1="675" x2="1010" y2="675" style="fill:none;stroke:rgb(65,65,65);stroke-width:1.2;stroke-linecap:square" />
<line x1="850" y1="685" x2="1010" y2="685" style="fill:none;stroke:rgb(65,65,65);stroke-width:1.2;stroke-linecap:square" />
<rect x="1030" y="450" width="180" height="55" style="fill:rgb(255,247,225);stroke:none" />
<rect x="1030" y="450" width="180" height="55" style="fill:none;stroke:rgb(65,65,65);stroke-width:1.2;stroke-linecap:square" />
<text x="1044" y="472" style="font:12px Ubuntu">StringPropertiesValidation</text>
<line x1="1030" y1="485" x2="1210" y2="485" style="fill:none;stroke:rgb(65,65,65);stroke-width:1.2;stroke-linecap:square" />
<line x1="1030" y1="495" x2="1210" y2="495" style="fill:none;stroke:rgb(65,65,65);stroke-width:1.2;stroke-linecap:square" />
<rect x="1240" y="450" width="190" height="55" style="fill:rgb(255,247,225);stroke:none" />
<rect x="1240" y="450" width="190" height="55" style="fill:none;stroke:rgb(65,65,65);stroke-width:1.2;stroke-linecap:square" />
<text x="1254" y="472" style="font:12px Ubuntu">NumberPropertiesValidation</text>
<line x1="1240" y1="485" x2="1430" y2="485" style="fill:none;stroke:rgb(65,65,65);stroke-width:1.2;stroke-linecap:square" />
<line x1="1240" y1="495" x2="1430" y2="495" style="fill:none;stroke:rgb(65,65,65);stroke-width:1.2;stroke-linecap:square" />
<rect x="1290" y="550" width="150" height="69" style="fill:rgb(255,247,225);stroke:none" />
<rect x="1290" y="550" width="150" height="69" style="fill:none;stroke:rgb(65,65,65);stroke-width:1.2;stroke-linecap:square" />
<text x="1300" y="572" style="font:12px Ubuntu">MaxNumberValidation</text>
<line x1="1290" y1="585" x2="1440" y2="585" style="fill:none;stroke:rgb(65,65,65);stroke-width:1.2;stroke-linecap:square" />
<text x="1298" y="600" style="font:12px Ubuntu">+ maximum : float</text>
<line x1="1290" y1="609" x2="1440" y2="609" style="fill:none;stroke:rgb(65,65,65);stroke-width:1.2;stroke-linecap:square" />
<rect x="1290" y="640" width="150" height="69" style="fill:rgb(255,247,225);stroke:none" />
<rect x="1290" y="640" width="150" height="69" style="fill:none;stroke:rgb(65,65,65);stroke-width:1.2;stroke-linecap:square" />
<text x="1301" y="662" style="font:12px Ubuntu">MinNumberValidation</text>
<line x1="1290" y1="675" x2="1440" y2="675" style="fill:none;stroke:rgb(65,65,65);stroke-width:1.2;stroke-linecap:square" />
<text x="1298" y="690" style="font:12px Ubuntu">+ minimum : float</text>
<line x1="1290" y1="699" x2="1440" y2="699" style="fill:none;stroke:rgb(65,65,65);stroke-width:1.2;stroke-linecap:square" />
<rect x="1030" y="640" width="150" height="69" style="fill:rgb(255,247,225);stroke:none" />
<rect x="1030" y="640" width="150" height="69" style="fill:none;stroke:rgb(65,65,65);stroke-width:1.2;stroke-linecap:square" />
<text x="1047" y="662" style="font:12px Ubuntu">MinStringValidation</text>
<line x1="1030" y1="675" x2="1180" y2="675" style="fill:none;stroke:rgb(65,65,65);stroke-width:1.2;stroke-linecap:square" />
<text x="1038" y="690" style="font:12px Ubuntu">+ minimum : int</text>
<line x1="1030" y1="699" x2="1180" y2="699" style="fill:none;stroke:rgb(65,65,65);stroke-width:1.2;stroke-linecap:square" />
<rect x="1030" y="550" width="150" height="69" style="fill:rgb(255,247,225);stroke:none" />
<rect x="1030" y="550" width="150" height="69" style="fill:none;stroke:rgb(65,65,65);stroke-width:1.2;stroke-linecap:square" />
<text x="1045" y="572" style="font:12px Ubuntu">MaxStringValidation</text>
<line x1="1030" y1="585" x2="1180" y2="585" style="fill:none;stroke:rgb(65,65,65);stroke-width:1.2;stroke-linecap:square" />
<text x="1038" y="600" style="font:12px Ubuntu">+ maximum : int</text>
<line x1="1030" y1="609" x2="1180" y2="609" style="fill:none;stroke:rgb(65,65,65);stroke-width:1.2;stroke-linecap:square" />
<rect x="1240" y="730" width="200" height="55" style="fill:rgb(255,247,225);stroke:none" />
<rect x="1240" y="730" width="200" height="55" style="fill:none;stroke:rgb(65,65,65);stroke-width:1.2;stroke-linecap:square" />
<text x="1259" y="752" style="font:12px Ubuntu">QuantityValidationProperty</text>
<line x1="1240" y1="765" x2="1440" y2="765" style="fill:none;stroke:rgb(65,65,65);stroke-width:1.2;stroke-linecap:square" />
<line x1="1240" y1="775" x2="1440" y2="775" style="fill:none;stroke:rgb(65,65,65);stroke-width:1.2;stroke-linecap:square" />
<text x="729" y="200" style="font:14px Ubuntu">Dictionary of attributes validators</text>
<text x="685" y="172" style="font:14px Ubuntu">1</text>
<text x="989" y="172" style="font:14px Ubuntu">0..*</text>
<text x="906" y="280" style="font:14px Ubuntu">UON value type validation</text>
<text x="1017" y="253" style="font:14px Ubuntu">1</text>
<text x="915" y="362" style="font:14px Ubuntu">1</text>
<text x="1175" y="285" style="font:14px Ubuntu">list of validation properties</text>
<text x="1157" y="253" style="font:14px Ubuntu">1</text>
<text x="1143" y="322" style="font:14px Ubuntu">0..*</text>
<path d="M380,1 L380,31 L640,31 Q670,31 670,1 L380,1" style="fill:rgb(255,247,225);stroke:none" />
<path d="M380,1 L380,31 L640,31 Q670,31 670,1 L380,1" style="fill:none;stroke:rgb(65,65,65);stroke-width:1.2;stroke-linecap:square" />
<text x="385" y="23" style="font:16px Ubuntu">Uon schema validation class diagram</text>
<rect x="380" y="1" width="1079" height="803" style="fill:none;stroke:rgb(64,64,64);stroke-linecap:square" />
</svg>
