<?xml version="1.0" encoding="UTF-8"?>
<!DOCTYPE svg PUBLIC "-//W3C//DTD SVG 1.1//EN" "http://www.w3.org/Graphics/SVG/1.1/DTD/svg11.dtd">
<svg version="1.2" xmlns="http://www.w3.org/2000/svg" xmlns:xlink="http://www.w3.org/1999/xlink" x="-11mm" y="0mm" width="1272mm" height="426mm" viewBox="-11 0 1272 426">
<style type="text/css"><![CDATA[
text { font:12px Dialog; }
]]></style>
<line x1="620" y1="130" x2="620" y2="95" style="fill:none;stroke:rgb(64,64,64);stroke-linecap:square" />
<polygon points="620,95 628,115 612,115" style="fill:rgb(255,255,255);stroke:none" />
<polygon points="620,95 628,115 612,115" style="fill:none;stroke:rgb(64,64,64);stroke-linecap:square" />
<line x1="90" y1="350" x2="90" y2="330" style="fill:none;stroke:rgb(64,64,64);stroke-linecap:square" />
<line x1="90" y1="330" x2="290" y2="330" style="fill:none;stroke:rgb(64,64,64);stroke-linecap:square" />
<line x1="290" y1="330" x2="290" y2="285" style="fill:none;stroke:rgb(64,64,64);stroke-linecap:square" />
<polygon points="290,285 298,305 282,305" style="fill:rgb(255,255,255);stroke:none" />
<polygon points="290,285 298,305 282,305" style="fill:none;stroke:rgb(64,64,64);stroke-linecap:square" />
<line x1="240" y1="350" x2="240" y2="330" style="fill:none;stroke:rgb(64,64,64);stroke-linecap:square" />
<line x1="240" y1="330" x2="290" y2="330" style="fill:none;stroke:rgb(64,64,64);stroke-linecap:square" />
<line x1="290" y1="330" x2="290" y2="285" style="fill:none;stroke:rgb(64,64,64);stroke-linecap:square" />
<polygon points="290,285 298,305 282,305" style="fill:rgb(255,255,255);stroke:none" />
<polygon points="290,285 298,305 282,305" style="fill:none;stroke:rgb(64,64,64);stroke-linecap:square" />
<line x1="400" y1="350" x2="400" y2="330" style="fill:none;stroke:rgb(64,64,64);stroke-linecap:square" />
<line x1="400" y1="330" x2="510" y2="330" style="fill:none;stroke:rgb(64,64,64);stroke-linecap:square" />
<line x1="510" y1="330" x2="510" y2="285" style="fill:none;stroke:rgb(64,64,64);stroke-linecap:square" />
<polygon points="510,285 518,305 502,305" style="fill:rgb(255,255,255);stroke:none" />
<polygon points="510,285 518,305 502,305" style="fill:none;stroke:rgb(64,64,64);stroke-linecap:square" />
<line x1="550" y1="350" x2="550" y2="330" style="fill:none;stroke:rgb(64,64,64);stroke-linecap:square" />
<line x1="550" y1="330" x2="510" y2="330" style="fill:none;stroke:rgb(64,64,64);stroke-linecap:square" />
<line x1="510" y1="330" x2="510" y2="285" style="fill:none;stroke:rgb(64,64,64);stroke-linecap:square" />
<polygon points="510,285 518,305 502,305" style="fill:rgb(255,255,255);stroke:none" />
<polygon points="510,285 518,305 502,305" style="fill:none;stroke:rgb(64,64,64);stroke-linecap:square" />
<line x1="710" y1="350" x2="710" y2="330" style="fill:none;stroke:rgb(64,64,64);stroke-linecap:square" />
<line x1="710" y1="330" x2="740" y2="330" style="fill:none;stroke:rgb(64,64,64);stroke-linecap:square" />
<line x1="740" y1="330" x2="740" y2="285" style="fill:none;stroke:rgb(64,64,64);stroke-linecap:square" />
<polygon points="740,285 748,305 732,305" style="fill:rgb(255,255,255);stroke:none" />
<polygon points="740,285 748,305 732,305" style="fill:none;stroke:rgb(64,64,64);stroke-linecap:square" />
<line x1="860" y1="350" x2="860" y2="330" style="fill:none;stroke:rgb(64,64,64);stroke-linecap:square" />
<line x1="860" y1="330" x2="740" y2="330" style="fill:none;stroke:rgb(64,64,64);stroke-linecap:square" />
<line x1="740" y1="330" x2="740" y2="285" style="fill:none;stroke:rgb(64,64,64);stroke-linecap:square" />
<polygon points="740,285 748,305 732,305" style="fill:rgb(255,255,255);stroke:none" />
<polygon points="740,285 748,305 732,305" style="fill:none;stroke:rgb(64,64,64);stroke-linecap:square" />
<line x1="1020" y1="350" x2="1020" y2="330" style="fill:none;stroke:rgb(64,64,64);stroke-linecap:square" />
<line x1="1020" y1="330" x2="960" y2="330" style="fill:none;stroke:rgb(64,64,64);stroke-linecap:square" />
<line x1="960" y1="330" x2="960" y2="285" style="fill:none;stroke:rgb(64,64,64);stroke-linecap:square" />
<polygon points="960,285 968,305 952,305" style="fill:rgb(255,255,255);stroke:none" />
<polygon points="960,285 968,305 952,305" style="fill:none;stroke:rgb(64,64,64);stroke-linecap:square" />
<line x1="1170" y1="350" x2="1170" y2="330" style="fill:none;stroke:rgb(64,64,64);stroke-linecap:square" />
<line x1="1170" y1="330" x2="960" y2="330" style="fill:none;stroke:rgb(64,64,64);stroke-linecap:square" />
<line x1="960" y1="330" x2="960" y2="285" style="fill:none;stroke:rgb(64,64,64);stroke-linecap:square" />
<polygon points="960,285 968,305 952,305" style="fill:rgb(255,255,255);stroke:none" />
<polygon points="960,285 968,305 952,305" style="fill:none;stroke:rgb(64,64,64);stroke-linecap:square" />
<line x1="570" y1="230" x2="570" y2="185" style="fill:none;stroke:rgb(64,64,64);stroke-linecap:square" />
<polygon points="570,185 578,205 562,205" style="fill:rgb(255,255,255);stroke:none" />
<polygon points="570,185 578,205 562,205" style="fill:none;stroke:rgb(64,64,64);stroke-linecap:square" />
<line x1="680" y1="230" x2="680" y2="185" style="fill:none;stroke:rgb(64,64,64);stroke-linecap:square" />
<polygon points="680,185 688,205 672,205" style="fill:rgb(255,255,255);stroke:none" />
<polygon points="680,185 688,205 672,205" style="fill:none;stroke:rgb(64,64,64);stroke-linecap:square" />
<line x1="960" y1="230" x2="960" y2="220" style="fill:none;stroke:rgb(64,64,64);stroke-linecap:square" />
<line x1="960" y1="220" x2="790" y2="220" style="fill:none;stroke:rgb(64,64,64);stroke-linecap:square" />
<line x1="790" y1="220" x2="790" y2="220" style="fill:none;stroke:rgb(64,64,64);stroke-linecap:square" />
<line x1="790" y1="220" x2="630" y2="220" style="fill:none;stroke:rgb(64,64,64);stroke-linecap:square" />
<line x1="630" y1="220" x2="630" y2="185" style="fill:none;stroke:rgb(64,64,64);stroke-linecap:square" />
<polygon points="630,185 638,205 622,205" style="fill:rgb(255,255,255);stroke:none" />
<polygon points="630,185 638,205 622,205" style="fill:none;stroke:rgb(64,64,64);stroke-linecap:square" />
<line x1="290" y1="230" x2="290" y2="220" style="fill:none;stroke:rgb(64,64,64);stroke-linecap:square" />
<line x1="290" y1="220" x2="460" y2="220" style="fill:none;stroke:rgb(64,64,64);stroke-linecap:square" />
<line x1="460" y1="220" x2="460" y2="220" style="fill:none;stroke:rgb(64,64,64);stroke-linecap:square" />
<line x1="460" y1="220" x2="630" y2="220" style="fill:none;stroke:rgb(64,64,64);stroke-linecap:square" />
<line x1="630" y1="220" x2="630" y2="185" style="fill:none;stroke:rgb(64,64,64);stroke-linecap:square" />
<polygon points="630,185 638,205 622,205" style="fill:rgb(255,255,255);stroke:none" />
<polygon points="630,185 638,205 622,205" style="fill:none;stroke:rgb(64,64,64);stroke-linecap:square" />
<rect x="550" y="130" width="150" height="55" style="fill:rgb(255,247,225);stroke:none" />
<rect x="550" y="130" width="150" height="55" style="fill:none;stroke:rgb(65,65,65);stroke-width:1.2;stroke-linecap:square" />
<text x="600" y="152" style="font:12px Ubuntu">Quantity</text>
<line x1="550" y1="165" x2="700" y2="165" style="fill:none;stroke:rgb(65,65,65);stroke-width:1.2;stroke-linecap:square" />
<line x1="550" y1="175" x2="700" y2="175" style="fill:none;stroke:rgb(65,65,65);stroke-width:1.2;stroke-linecap:square" />
<rect x="550" y="40" width="150" height="55" style="fill:rgb(255,247,225);stroke:none" />
<rect x="550" y="40" width="150" height="55" style="fill:none;stroke:rgb(65,65,65);stroke-width:1.2;stroke-linecap:square" />
<text x="614" y="62" style="font:12px Ubuntu">Uon</text>
<line x1="550" y1="75" x2="700" y2="75" style="fill:none;stroke:rgb(65,65,65);stroke-width:1.2;stroke-linecap:square" />
<line x1="550" y1="85" x2="700" y2="85" style="fill:none;stroke:rgb(65,65,65);stroke-width:1.2;stroke-linecap:square" />
<rect x="210" y="230" width="150" height="55" style="fill:rgb(255,247,225);stroke:none" />
<rect x="210" y="230" width="150" height="55" style="fill:none;stroke:rgb(65,65,65);stroke-width:1.2;stroke-linecap:square" />
<text x="265" y="252" style="font:12px Ubuntu">Length</text>
<line x1="210" y1="265" x2="360" y2="265" style="fill:none;stroke:rgb(65,65,65);stroke-width:1.2;stroke-linecap:square" />
<line x1="210" y1="275" x2="360" y2="275" style="fill:none;stroke:rgb(65,65,65);stroke-width:1.2;stroke-linecap:square" />
<rect x="430" y="230" width="150" height="55" style="fill:rgb(255,247,225);stroke:none" />
<rect x="430" y="230" width="150" height="55" style="fill:none;stroke:rgb(65,65,65);stroke-width:1.2;stroke-linecap:square" />
<text x="490" y="252" style="font:12px Ubuntu">Mass</text>
<line x1="430" y1="265" x2="580" y2="265" style="fill:none;stroke:rgb(65,65,65);stroke-width:1.2;stroke-linecap:square" />
<line x1="430" y1="275" x2="580" y2="275" style="fill:none;stroke:rgb(65,65,65);stroke-width:1.2;stroke-linecap:square" />
<rect x="660" y="230" width="150" height="55" style="fill:rgb(255,247,225);stroke:none" />
<rect x="660" y="230" width="150" height="55" style="fill:none;stroke:rgb(65,65,65);stroke-width:1.2;stroke-linecap:square" />
<text x="721" y="252" style="font:12px Ubuntu">Time</text>
<line x1="660" y1="265" x2="810" y2="265" style="fill:none;stroke:rgb(65,65,65);stroke-width:1.2;stroke-linecap:square" />
<line x1="660" y1="275" x2="810" y2="275" style="fill:none;stroke:rgb(65,65,65);stroke-width:1.2;stroke-linecap:square" />
<rect x="880" y="230" width="150" height="55" style="fill:rgb(255,247,225);stroke:none" />
<rect x="880" y="230" width="150" height="55" style="fill:none;stroke:rgb(65,65,65);stroke-width:1.2;stroke-linecap:square" />
<text x="918" y="252" style="font:12px Ubuntu">Temperature</text>
<line x1="880" y1="265" x2="1030" y2="265" style="fill:none;stroke:rgb(65,65,65);stroke-width:1.2;stroke-linecap:square" />
<line x1="880" y1="275" x2="1030" y2="275" style="fill:none;stroke:rgb(65,65,65);stroke-width:1.2;stroke-linecap:square" />
<rect x="10" y="350" width="150" height="55" style="fill:rgb(255,247,225);stroke:none" />
<rect x="10" y="350" width="150" height="55" style="fill:none;stroke:rgb(65,65,65);stroke-width:1.2;stroke-linecap:square" />
<text x="56" y="372" style="font:12px Ubuntu">Kilometer</text>
<line x1="10" y1="385" x2="160" y2="385" style="fill:none;stroke:rgb(65,65,65);stroke-width:1.2;stroke-linecap:square" />
<line x1="10" y1="395" x2="160" y2="395" style="fill:none;stroke:rgb(65,65,65);stroke-width:1.2;stroke-linecap:square" />
<rect x="160" y="350" width="150" height="55" style="fill:rgb(255,247,225);stroke:none" />
<rect x="160" y="350" width="150" height="55" style="fill:none;stroke:rgb(65,65,65);stroke-width:1.2;stroke-linecap:square" />
<text x="217" y="372" style="font:12px Ubuntu">Meter</text>
<line x1="160" y1="385" x2="310" y2="385" style="fill:none;stroke:rgb(65,65,65);stroke-width:1.2;stroke-linecap:square" />
<line x1="160" y1="395" x2="310" y2="395" style="fill:none;stroke:rgb(65,65,65);stroke-width:1.2;stroke-linecap:square" />
<rect x="320" y="350" width="150" height="55" style="fill:rgb(255,247,225);stroke:none" />
<rect x="320" y="350" width="150" height="55" style="fill:none;stroke:rgb(65,65,65);stroke-width:1.2;stroke-linecap:square" />
<text x="369" y="372" style="font:12px Ubuntu">Kilogram</text>
<line x1="320" y1="385" x2="470" y2="385" style="fill:none;stroke:rgb(65,65,65);stroke-width:1.2;stroke-linecap:square" />
<line x1="320" y1="395" x2="470" y2="395" style="fill:none;stroke:rgb(65,65,65);stroke-width:1.2;stroke-linecap:square" />
<rect x="630" y="350" width="150" height="55" style="fill:rgb(255,247,225);stroke:none" />
<rect x="630" y="350" width="150" height="55" style="fill:none;stroke:rgb(65,65,65);stroke-width:1.2;stroke-linecap:square" />
<text x="684" y="372" style="font:12px Ubuntu">Minute</text>
<line x1="630" y1="385" x2="780" y2="385" style="fill:none;stroke:rgb(65,65,65);stroke-width:1.2;stroke-linecap:square" />
<line x1="630" y1="395" x2="780" y2="395" style="fill:none;stroke:rgb(65,65,65);stroke-width:1.2;stroke-linecap:square" />
<rect x="780" y="350" width="150" height="55" style="fill:rgb(255,247,225);stroke:none" />
<rect x="780" y="350" width="150" height="55" style="fill:none;stroke:rgb(65,65,65);stroke-width:1.2;stroke-linecap:square" />
<text x="834" y="372" style="font:12px Ubuntu">Second</text>
<line x1="780" y1="385" x2="930" y2="385" style="fill:none;stroke:rgb(65,65,65);stroke-width:1.2;stroke-linecap:square" />
<line x1="780" y1="395" x2="930" y2="395" style="fill:none;stroke:rgb(65,65,65);stroke-width:1.2;stroke-linecap:square" />
<rect x="940" y="350" width="150" height="55" style="fill:rgb(255,247,225);stroke:none" />
<rect x="940" y="350" width="150" height="55" style="fill:none;stroke:rgb(65,65,65);stroke-width:1.2;stroke-linecap:square" />
<text x="997" y="372" style="font:12px Ubuntu">Kelvin</text>
<line x1="940" y1="385" x2="1090" y2="385" style="fill:none;stroke:rgb(65,65,65);stroke-width:1.2;stroke-linecap:square" />
<line x1="940" y1="395" x2="1090" y2="395" style="fill:none;stroke:rgb(65,65,65);stroke-width:1.2;stroke-linecap:square" />
<rect x="1090" y="350" width="150" height="55" style="fill:rgb(255,247,225);stroke:none" />
<rect x="1090" y="350" width="150" height="55" style="fill:none;stroke:rgb(65,65,65);stroke-width:1.2;stroke-linecap:square" />
<text x="1144" y="372" style="font:12px Ubuntu">Celsius</text>
<line x1="1090" y1="385" x2="1240" y2="385" style="fill:none;stroke:rgb(65,65,65);stroke-width:1.2;stroke-linecap:square" />
<line x1="1090" y1="395" x2="1240" y2="395" style="fill:none;stroke:rgb(65,65,65);stroke-width:1.2;stroke-linecap:square" />
<rect x="470" y="350" width="150" height="55" style="fill:rgb(255,247,225);stroke:none" />
<rect x="470" y="350" width="150" height="55" style="fill:none;stroke:rgb(65,65,65);stroke-width:1.2;stroke-linecap:square" />
<text x="530" y="372" style="font:12px Ubuntu">Gram</text>
<line x1="470" y1="385" x2="620" y2="385" style="fill:none;stroke:rgb(65,65,65);stroke-width:1.2;stroke-linecap:square" />
<line x1="470" y1="395" x2="620" y2="395" style="fill:none;stroke:rgb(65,65,65);stroke-width:1.2;stroke-linecap:square" />
<path d="M-10,1 L-10,31 L153,31 Q183,31 183,1 L-10,1" style="fill:rgb(255,247,225);stroke:none" />
<path d="M-10,1 L-10,31 L153,31 Q183,31 183,1 L-10,1" style="fill:none;stroke:rgb(65,65,65);stroke-width:1.2;stroke-linecap:square" />
<text x="-5" y="23" style="font:16px Ubuntu">Uon Quantity and units</text>
<rect x="-10" y="1" width="1269" height="423" style="fill:none;stroke:rgb(64,64,64);stroke-linecap:square" />
</svg>
