<?xml version="1.0" encoding="UTF-8"?>
<!DOCTYPE svg PUBLIC "-//W3C//DTD SVG 1.1//EN" "http://www.w3.org/Graphics/SVG/1.1/DTD/svg11.dtd">
<svg version="1.2" xmlns="http://www.w3.org/2000/svg" xmlns:xlink="http://www.w3.org/1999/xlink" x="209mm" y="0mm" width="702mm" height="586mm" viewBox="209 0 702 586">
<style type="text/css"><![CDATA[
text { font:12px Dialog; }
]]></style>
<line x1="640" y1="240" x2="640" y2="230" style="fill:none;stroke:rgb(64,64,64);stroke-linecap:square" />
<line x1="640" y1="230" x2="570" y2="230" style="fill:none;stroke:rgb(64,64,64);stroke-linecap:square" />
<line x1="570" y1="230" x2="570" y2="195" style="fill:none;stroke:rgb(64,64,64);stroke-linecap:square" />
<polygon points="570,195 578,215 562,215" style="fill:rgb(255,255,255);stroke:none" />
<polygon points="570,195 578,215 562,215" style="fill:none;stroke:rgb(64,64,64);stroke-linecap:square" />
<line x1="790" y1="240" x2="790" y2="195" style="fill:none;stroke:rgb(64,64,64);stroke-linecap:square" />
<polygon points="790,195 798,215 782,215" style="fill:rgb(255,255,255);stroke:none" />
<polygon points="790,195 798,215 782,215" style="fill:none;stroke:rgb(64,64,64);stroke-linecap:square" />
<line x1="790" y1="140" x2="790" y2="130" style="fill:none;stroke:rgb(64,64,64);stroke-linecap:square" />
<line x1="790" y1="130" x2="570" y2="130" style="fill:none;stroke:rgb(64,64,64);stroke-linecap:square" />
<line x1="570" y1="130" x2="570" y2="95" style="fill:none;stroke:rgb(64,64,64);stroke-linecap:square" />
<polygon points="570,95 578,115 562,115" style="fill:rgb(255,255,255);stroke:none" />
<polygon points="570,95 578,115 562,115" style="fill:none;stroke:rgb(64,64,64);stroke-linecap:square" />
<line x1="570" y1="140" x2="570" y2="95" style="fill:none;stroke:rgb(64,64,64);stroke-linecap:square" />
<polygon points="570,95 578,115 562,115" style="fill:rgb(255,255,255);stroke:none" />
<polygon points="570,95 578,115 562,115" style="fill:none;stroke:rgb(64,64,64);stroke-linecap:square" />
<line x1="370" y1="140" x2="370" y2="130" style="fill:none;stroke:rgb(64,64,64);stroke-linecap:square" />
<line x1="370" y1="130" x2="570" y2="130" style="fill:none;stroke:rgb(64,64,64);stroke-linecap:square" />
<line x1="570" y1="130" x2="570" y2="95" style="fill:none;stroke:rgb(64,64,64);stroke-linecap:square" />
<polygon points="570,95 578,115 562,115" style="fill:rgb(255,255,255);stroke:none" />
<polygon points="570,95 578,115 562,115" style="fill:none;stroke:rgb(64,64,64);stroke-linecap:square" />
<line x1="450" y1="240" x2="450" y2="230" style="fill:none;stroke:rgb(64,64,64);stroke-linecap:square" />
<line x1="450" y1="230" x2="570" y2="230" style="fill:none;stroke:rgb(64,64,64);stroke-linecap:square" />
<line x1="570" y1="230" x2="570" y2="195" style="fill:none;stroke:rgb(64,64,64);stroke-linecap:square" />
<polygon points="570,195 578,215 562,215" style="fill:rgb(255,255,255);stroke:none" />
<polygon points="570,195 578,215 562,215" style="fill:none;stroke:rgb(64,64,64);stroke-linecap:square" />
<line x1="550" y1="340" x2="550" y2="330" style="fill:none;stroke:rgb(64,64,64);stroke-linecap:square" />
<line x1="550" y1="330" x2="430" y2="330" style="fill:none;stroke:rgb(64,64,64);stroke-linecap:square" />
<line x1="430" y1="330" x2="430" y2="295" style="fill:none;stroke:rgb(64,64,64);stroke-linecap:square" />
<polygon points="430,295 438,315 422,315" style="fill:rgb(255,255,255);stroke:none" />
<polygon points="430,295 438,315 422,315" style="fill:none;stroke:rgb(64,64,64);stroke-linecap:square" />
<line x1="320" y1="340" x2="320" y2="330" style="fill:none;stroke:rgb(64,64,64);stroke-linecap:square" />
<line x1="320" y1="330" x2="430" y2="330" style="fill:none;stroke:rgb(64,64,64);stroke-linecap:square" />
<line x1="430" y1="330" x2="430" y2="295" style="fill:none;stroke:rgb(64,64,64);stroke-linecap:square" />
<polygon points="430,295 438,315 422,315" style="fill:rgb(255,255,255);stroke:none" />
<polygon points="430,295 438,315 422,315" style="fill:none;stroke:rgb(64,64,64);stroke-linecap:square" />
<line x1="450" y1="440" x2="430" y2="440" style="fill:none;stroke:rgb(64,64,64);stroke-linecap:square" />
<line x1="430" y1="440" x2="430" y2="295" style="fill:none;stroke:rgb(64,64,64);stroke-linecap:square" />
<polygon points="430,295 438,315 422,315" style="fill:rgb(255,255,255);stroke:none" />
<polygon points="430,295 438,315 422,315" style="fill:none;stroke:rgb(64,64,64);stroke-linecap:square" />
<line x1="410" y1="440" x2="430" y2="440" style="fill:none;stroke:rgb(64,64,64);stroke-linecap:square" />
<line x1="430" y1="440" x2="430" y2="295" style="fill:none;stroke:rgb(64,64,64);stroke-linecap:square" />
<polygon points="430,295 438,315 422,315" style="fill:rgb(255,255,255);stroke:none" />
<polygon points="430,295 438,315 422,315" style="fill:none;stroke:rgb(64,64,64);stroke-linecap:square" />
<line x1="430" y1="510" x2="430" y2="295" style="fill:none;stroke:rgb(64,64,64);stroke-linecap:square" />
<polygon points="430,295 438,315 422,315" style="fill:rgb(255,255,255);stroke:none" />
<polygon points="430,295 438,315 422,315" style="fill:none;stroke:rgb(64,64,64);stroke-linecap:square" />
<rect x="560" y="240" width="150" height="55" style="fill:rgb(255,247,225);stroke:none" />
<rect x="560" y="240" width="150" height="55" style="fill:none;stroke:rgb(65,65,65);stroke-width:1.2;stroke-linecap:square" />
<text x="576" y="262" style="font:12px Ubuntu">ValidationTypeError</text>
<line x1="560" y1="275" x2="710" y2="275" style="fill:none;stroke:rgb(65,65,65);stroke-width:1.2;stroke-linecap:square" />
<line x1="560" y1="285" x2="710" y2="285" style="fill:none;stroke:rgb(65,65,65);stroke-width:1.2;stroke-linecap:square" />
<rect x="720" y="140" width="150" height="55" style="fill:rgb(255,247,225);stroke:none" />
<rect x="720" y="140" width="150" height="55" style="fill:none;stroke:rgb(65,65,65);stroke-width:1.2;stroke-linecap:square" />
<text x="728" y="162" style="font:12px Ubuntu">SchemaValidationErr...</text>
<line x1="720" y1="175" x2="870" y2="175" style="fill:none;stroke:rgb(65,65,65);stroke-width:1.2;stroke-linecap:square" />
<line x1="720" y1="185" x2="870" y2="185" style="fill:none;stroke:rgb(65,65,65);stroke-width:1.2;stroke-linecap:square" />
<rect x="720" y="240" width="170" height="55" style="fill:rgb(255,247,225);stroke:none" />
<rect x="720" y="240" width="170" height="55" style="fill:none;stroke:rgb(65,65,65);stroke-width:1.2;stroke-linecap:square" />
<text x="737" y="262" style="font:12px Ubuntu">RequiredAttributeError</text>
<line x1="720" y1="275" x2="890" y2="275" style="fill:none;stroke:rgb(65,65,65);stroke-width:1.2;stroke-linecap:square" />
<line x1="720" y1="285" x2="890" y2="285" style="fill:none;stroke:rgb(65,65,65);stroke-width:1.2;stroke-linecap:square" />
<rect x="490" y="140" width="150" height="55" style="fill:rgb(255,247,225);stroke:none" />
<rect x="490" y="140" width="150" height="55" style="fill:none;stroke:rgb(65,65,65);stroke-width:1.2;stroke-linecap:square" />
<text x="520" y="162" style="font:12px Ubuntu">ValidationError</text>
<line x1="490" y1="175" x2="640" y2="175" style="fill:none;stroke:rgb(65,65,65);stroke-width:1.2;stroke-linecap:square" />
<line x1="490" y1="185" x2="640" y2="185" style="fill:none;stroke:rgb(65,65,65);stroke-width:1.2;stroke-linecap:square" />
<rect x="490" y="40" width="150" height="55" style="fill:rgb(255,247,225);stroke:none" />
<rect x="490" y="40" width="150" height="55" style="fill:none;stroke:rgb(65,65,65);stroke-width:1.2;stroke-linecap:square" />
<text x="536" y="62" style="font:12px Ubuntu">Exception</text>
<line x1="490" y1="75" x2="640" y2="75" style="fill:none;stroke:rgb(65,65,65);stroke-width:1.2;stroke-linecap:square" />
<line x1="490" y1="85" x2="640" y2="85" style="fill:none;stroke:rgb(65,65,65);stroke-width:1.2;stroke-linecap:square" />
<rect x="290" y="140" width="150" height="55" style="fill:rgb(255,247,225);stroke:none" />
<rect x="290" y="140" width="150" height="55" style="fill:none;stroke:rgb(65,65,65);stroke-width:1.2;stroke-linecap:square" />
<text x="300" y="162" style="font:12px Ubuntu">UonDuplicateKeyError</text>
<line x1="290" y1="175" x2="440" y2="175" style="fill:none;stroke:rgb(65,65,65);stroke-width:1.2;stroke-linecap:square" />
<line x1="290" y1="185" x2="440" y2="185" style="fill:none;stroke:rgb(65,65,65);stroke-width:1.2;stroke-linecap:square" />
<rect x="360" y="240" width="180" height="55" style="fill:rgb(255,247,225);stroke:none" />
<rect x="360" y="240" width="180" height="55" style="fill:none;stroke:rgb(65,65,65);stroke-width:1.2;stroke-linecap:square" />
<text x="379" y="262" style="font:12px Ubuntu">ValidationPropertyError</text>
<line x1="360" y1="275" x2="540" y2="275" style="fill:none;stroke:rgb(65,65,65);stroke-width:1.2;stroke-linecap:square" />
<line x1="360" y1="285" x2="540" y2="285" style="fill:none;stroke:rgb(65,65,65);stroke-width:1.2;stroke-linecap:square" />
<rect x="230" y="340" width="180" height="55" style="fill:rgb(255,247,225);stroke:none" />
<rect x="230" y="340" width="180" height="55" style="fill:none;stroke:rgb(65,65,65);stroke-width:1.2;stroke-linecap:square" />
<text x="247" y="362" style="font:12px Ubuntu">MinStringValidationError</text>
<line x1="230" y1="375" x2="410" y2="375" style="fill:none;stroke:rgb(65,65,65);stroke-width:1.2;stroke-linecap:square" />
<line x1="230" y1="385" x2="410" y2="385" style="fill:none;stroke:rgb(65,65,65);stroke-width:1.2;stroke-linecap:square" />
<rect x="230" y="420" width="180" height="55" style="fill:rgb(255,247,225);stroke:none" />
<rect x="230" y="420" width="180" height="55" style="fill:none;stroke:rgb(65,65,65);stroke-width:1.2;stroke-linecap:square" />
<text x="246" y="442" style="font:12px Ubuntu">MaxStringValidationError</text>
<line x1="230" y1="455" x2="410" y2="455" style="fill:none;stroke:rgb(65,65,65);stroke-width:1.2;stroke-linecap:square" />
<line x1="230" y1="465" x2="410" y2="465" style="fill:none;stroke:rgb(65,65,65);stroke-width:1.2;stroke-linecap:square" />
<rect x="450" y="340" width="190" height="55" style="fill:rgb(255,247,225);stroke:none" />
<rect x="450" y="340" width="190" height="55" style="fill:none;stroke:rgb(65,65,65);stroke-width:1.2;stroke-linecap:square" />
<text x="467" y="362" style="font:12px Ubuntu">MinNumberValidationError</text>
<line x1="450" y1="375" x2="640" y2="375" style="fill:none;stroke:rgb(65,65,65);stroke-width:1.2;stroke-linecap:square" />
<line x1="450" y1="385" x2="640" y2="385" style="fill:none;stroke:rgb(65,65,65);stroke-width:1.2;stroke-linecap:square" />
<rect x="450" y="420" width="190" height="55" style="fill:rgb(255,247,225);stroke:none" />
<rect x="450" y="420" width="190" height="55" style="fill:none;stroke:rgb(65,65,65);stroke-width:1.2;stroke-linecap:square" />
<text x="465" y="442" style="font:12px Ubuntu">MaxNumberValidationError</text>
<line x1="450" y1="455" x2="640" y2="455" style="fill:none;stroke:rgb(65,65,65);stroke-width:1.2;stroke-linecap:square" />
<line x1="450" y1="465" x2="640" y2="465" style="fill:none;stroke:rgb(65,65,65);stroke-width:1.2;stroke-linecap:square" />
<rect x="340" y="510" width="180" height="55" style="fill:rgb(255,247,225);stroke:none" />
<rect x="340" y="510" width="180" height="55" style="fill:none;stroke:rgb(65,65,65);stroke-width:1.2;stroke-linecap:square" />
<text x="360" y="532" style="font:12px Ubuntu">QuantityValidationError</text>
<line x1="340" y1="545" x2="520" y2="545" style="fill:none;stroke:rgb(65,65,65);stroke-width:1.2;stroke-linecap:square" />
<line x1="340" y1="555" x2="520" y2="555" style="fill:none;stroke:rgb(65,65,65);stroke-width:1.2;stroke-linecap:square" />
<path d="M210,1 L210,31 L419,31 Q449,31 449,1 L210,1" style="fill:rgb(255,247,225);stroke:none" />
<path d="M210,1 L210,31 L419,31 Q449,31 449,1 L210,1" style="fill:none;stroke:rgb(65,65,65);stroke-width:1.2;stroke-linecap:square" />
<text x="215" y="23" style="font:16px Ubuntu">Uon Exceptions class diagram</text>
<rect x="210" y="1" width="699" height="583" style="fill:none;stroke:rgb(64,64,64);stroke-linecap:square" />
</svg>
